<svg width="14" height="18" viewBox="0 0 10 10" fill="none" xmlns="http://www.w3.org/2000/svg">
<path d="M9.87896 4.69944H5.22911L5.23455 6.03108H8.36953C7.99882 7.6524 6.85466 8.64719 5.31861 8.64719C3.30422 8.64719 1.6708 7.01379 1.6708 4.9994C1.6708 2.985 3.30361 1.3516 5.31861 1.3516C6.27653 1.3516 7.14795 1.72109 7.79865 2.32523L8.82733 1.43868C7.92505 0.549105 6.68594 0 5.31861 0C2.55736 0 0.318604 2.23875 0.318604 5C0.318604 7.76125 2.55736 10 5.31861 10C7.97041 10 9.88622 7.97775 9.88622 5.21589L9.87896 4.69944Z" fill="white"/>
</svg>
